HIERARCHY
ROOT Hips
{
	OFFSET 0.00000 0.00000 0.00000
	CHANNELS 6 Xposition Yposition Zposition Yrotation Zrotation Xrotation 
	JOINT Lumbar
	{
		OFFSET 0 0 0
		CHANNELS 3 Zrotation Xrotation Yrotation
		JOINT Neck
		{
			OFFSET 0.00 0.2701 0.00
			CHANNELS 3 Zrotation Xrotation Yrotation
			End Site
			{
				OFFSET 0.00 0.1379 0.00
			}
		}
		JOINT RightShoulder
		{
			OFFSET 0.0119 0.2289 0.1181
			CHANNELS 3 Zrotation Xrotation Yrotation
			JOINT RightElbow
			{
				OFFSET 0.00 -0.1475 0.00
				CHANNELS 2 Zrotation Yrotation
				JOINT RightWrist
				{
					OFFSET 0.00 -0.1605 0.00
					CHANNELS 2 Zrotation Xrotation
					End Site
					{
						OFFSET 0.0040 -0.1068 0.0006
					}
				}
			}
		}
		JOINT LeftShoulder
		{
			OFFSET 0.0119 0.2289 -0.1181
			CHANNELS 3 Zrotation Xrotation Yrotation
			JOINT LeftElbow
			{
				OFFSET 0.00 -0.1475 0.00
				CHANNELS 2 Zrotation Yrotation
				JOINT LeftWrist
				{
					OFFSET 0.00 -0.1605 0.00
					CHANNELS 2 Zrotation Xrotation
					End Site
					{
						OFFSET 0.0040 -0.1068 -0.0006
					}
				}
			}
		}
	}
	JOINT RightHip
	{
		OFFSET 0.0316 -0.0424 0.0458
		CHANNELS 3 Zrotation Xrotation Yrotation
		JOINT RightKnee
		{
			OFFSET 0.00 -0.2438 0.00
			CHANNELS 1 Zrotation
			JOINT RightAnkle
			{
				OFFSET 0.00 -0.2449 0.00
				CHANNELS 3 Zrotation Xrotation Yrotation
				End Site
				{
					OFFSET 0.1237 -0.0542 0.0051
				}
			}
		}
	}
	JOINT LeftHip
	{
		OFFSET 0.0316 -0.0424 -0.0458
		CHANNELS 3 Zrotation Xrotation Yrotation
		JOINT LeftKnee
		{
			OFFSET 0.00 -0.2438 0.00
			CHANNELS 1 Zrotation
			JOINT LeftAnkle
			{
				OFFSET 0.00 -0.2449 0.00
				CHANNELS 3 Zrotation Xrotation Yrotation
				End Site
				{
					OFFSET 0.1237 -0.0542 -0.0051
				}
			}
		}
	}
}
MOTION
Frames: 11
Frame Time: 0.02
-0.0023 0.00053 0.00084 -173.91674 -29.84958 1.00115 44.62989 -0.85696 -7.77144 -10.97271 2.62672 -1.06007 -17.67461 -3.92498 -10.6143 25.79092 145.11364 21.63798 9.92234 -20.74837 5.56966 2.23115 29.85147 -148.10248 29.95179 -8.66977 28.23971 -2.8898 -2.94458 -20.0091 -6.67261 -3.74796 -4.04974 33.373 4.67165 11.08896 -24.20183 -6.35827 1.4419 2.91639
-0.00259 0.00045 0.00086 -173.90933 -29.85908 1.02733 44.60562 -0.85537 -7.67826 -10.88499 2.61039 -1.06106 -17.60786 -4.0992 -9.77988 25.73601 140.065 20.25687 9.09709 -20.57616 5.72384 1.61924 29.78916 -143.70521 28.48961 -7.99248 28.21518 -3.01752 -3.51313 -20.02151 -6.63557 -3.70023 -4.02394 33.36389 4.59114 10.85561 -24.20749 -6.351 1.4648 2.9292
-0.00288 0.00037 0.00089 -173.90194 -29.86856 1.05344 44.58141 -0.85379 -7.58539 -10.79761 2.5941 -1.06204 -17.54136 -4.273 -8.94769 25.68153 135.03187 18.88002 8.27438 -20.4046 5.87769 1.00886 29.72744 -139.32149 27.03198 -7.31727 28.19071 -3.14486 -4.08008 -20.0339 -6.59863 -3.65264 -3.99821 33.35478 4.51088 10.62298 -24.21313 -6.34376 1.48763 2.94197
-0.00317 0.00028 0.00091 -173.89455 -29.87802 1.07955 44.55722 -0.85222 -7.49251 -10.7102 2.57782 -1.06302 -17.47478 -4.44666 -8.11588 25.62671 129.99878 17.50316 7.45168 -20.23286 6.03136 0.39883 29.66523 -134.93779 25.57433 -6.64207 28.16624 -3.27219 -4.6469 -20.04627 -6.56169 -3.60506 -3.97249 33.34568 4.43061 10.39034 -24.21876 -6.33652 1.51046 2.95474
-0.00347 0.0002 0.00094 -173.88717 -29.88753 1.10573 44.53294 -0.85063 -7.3993 -10.62237 2.5615 -1.06401 -17.40804 -4.62081 -7.28172 25.57167 124.95019 16.12205 6.62642 -20.06061 6.18543 -0.21274 29.60271 -130.54046 24.11209 -5.96478 28.14177 -3.39988 -5.21525 -20.05864 -6.52465 -3.55734 -3.94669 33.33662 4.35009 10.15699 -24.22441 -6.32925 1.53335 2.96755
-0.00376 0.00012 0.00096 -173.87977 -29.89695 1.13169 44.50888 -0.84905 -7.30714 -10.53591 2.54527 -1.06499 -17.34213 -4.79389 -6.4536 25.51856 119.94985 14.75426 5.80912 -19.89062 6.33891 -0.82064 29.54293 -126.18559 22.66419 -5.29397 28.11733 -3.52649 -5.77925 -20.07107 -6.48793 -3.51001 -3.92111 33.32743 4.27039 9.92592 -24.23005 -6.32205 1.55605 2.98024
-0.00405 4e-05 0.00099 -173.87237 -29.90647 1.15808 44.48445 -0.8475 -7.21301 -10.44694 2.52886 -1.06598 -17.27433 -4.96867 -5.6149 25.46078 114.85821 13.36119 4.97678 -19.71578 6.49303 -1.43488 29.47656 -121.75051 21.18921 -4.61092 28.09274 -3.65514 -6.35133 -20.08338 -6.45061 -3.46196 -3.89512 33.31842 4.18911 9.69049 -24.23569 -6.31473 1.57911 2.99316
-0.00434 -4e-05 0.00101 -173.86503 -29.91604 1.18404 44.46027 -0.84587 -7.12063 -10.35999 2.51266 -1.06697 -17.20882 -5.14237 -4.78475 25.40884 109.85026 11.9914 4.15817 -19.54631 6.64723 -2.04395 29.41837 -117.3886 19.73889 -3.93905 28.06847 -3.78189 -6.91603 -20.09579 -6.41383 -3.41455 -3.8695 33.30943 4.10933 9.45909 -24.24134 -6.30753 1.60184 3.00587
-0.00463 -0.00012 0.00103 -173.85753 -29.92512 1.20961 44.43674 -0.84432 -7.03062 -10.27665 2.49655 -1.06794 -17.14389 -5.31289 -3.96945 25.358 104.94449 10.64963 3.35654 -19.3798 6.79899 -2.64435 29.36186 -113.11748 18.31934 -3.28101 28.04388 -3.90643 -7.47172 -20.10836 -6.37772 -3.36802 -3.84437 33.29972 4.03115 9.23247 -24.24695 -6.30044 1.62417 3.01833
-0.00492 -0.0002 0.00107 -173.85024 -29.93533 1.23781 44.41054 -0.84284 -6.92767 -10.17598 2.47941 -1.06895 -17.06894 -5.49615 -3.08189 25.28266 99.45032 9.1453 2.4578 -19.1854 6.95714 -3.28757 29.27071 -108.32788 16.7246 -2.54387 28.01898 -4.04407 -8.07928 -20.12012 -6.33782 -3.31672 -3.81652 33.29189 3.94308 8.97793 -24.25263 -6.29259 1.64882 3.03222
-0.00521 -0.00028 0.00108 -173.84296 -29.94423 1.26023 44.38929 -0.84086 -6.85158 -10.10968 2.46478 -1.06991 -17.01943 -5.65604 -2.33847 25.27061 95.19827 7.9849 1.76361 -19.05678 7.10666 -3.84488 29.26855 -104.63002 15.49838 -1.97336 27.99614 -4.15381 -8.57734 -20.13351 -6.30588 -3.27532 -3.79433 33.28153 3.87633 8.78259 -24.25827 -6.28641 1.66857 3.04309
